<svg id="Ebene_1" data-name="Ebene 1" xmlns="http://www.w3.org/2000/svg" xmlns:xlink="http://www.w3.org/1999/xlink"
     viewBox="0 0 40 40">
    <defs>
        <clipPath id="clip-path">
            <rect width="40" height="40" fill="none"/>
        </clipPath>
    </defs>
    <g clip-path="url(#clip-path)">
        <rect width="40" height="40" fill="#e43535"/>
        <polygon points="20.03 20.56 -7.68 48.92 12.41 48.92 40 20.56 11.59 -8.92 -8.43 -8.92 20.03 20.56"
                 fill="#d43431"/>
    </g>
    <path d="M30.3,10.93,29.51,7.5,27,9.79l-9.27,8.63,3.32,1a7.82,7.82,0,0,1-1.5,1.5,8.35,8.35,0,0,1-8,.88A9.28,9.28,0,0,1,7,18.58l-.14.14V30.76c.46.2.93.38,1.41.55,8.89,3.1,17.24,0,20.72-7.48a16.65,16.65,0,0,0,.64-1.57l.06-.19,3.39,1Z"
          fill="#fff"/>
</svg>