<svg viewBox="0 0 40 40" width="24" height="24" xmlns="http://www.w3.org/2000/svg"
     xmlns:xlink="http://www.w3.org/1999/xlink">
    <clipPath id="a">
        <path d="m0 0h40v40h-40z"/>
    </clipPath>
    <g clip-path="url(#a)">
        <path d="m0 0h40v40h-40z" fill="#e43535"/>
        <path d="m20.03 20.56-27.71 28.36h20.09l27.59-28.36-28.41-29.48h-20.02z" fill="#d43431"/>
    </g>
    <path d="m30.3 10.93-.79-3.43-2.51 2.29-9.27 8.63 3.32 1a7.82 7.82 0 0 1 -1.5 1.5 8.35 8.35 0 0 1 -8 .88 9.28 9.28 0 0 1 -4.55-3.22l-.14.14v12.04c.46.2.93.38 1.41.55 8.89 3.1 17.24 0 20.72-7.48a16.65 16.65 0 0 0 .64-1.57l.06-.19 3.39 1z"
          fill="#fff"/>
</svg>