<?xml version="1.0" encoding="UTF-8" standalone="no"?>
<!-- Created with Inkscape (http://www.inkscape.org/) -->

<svg
   xmlns:dc="http://purl.org/dc/elements/1.1/"
   xmlns:cc="http://creativecommons.org/ns#"
   xmlns:rdf="http://www.w3.org/1999/02/22-rdf-syntax-ns#"
   xmlns:svg="http://www.w3.org/2000/svg"
   xmlns="http://www.w3.org/2000/svg"
   xmlns:sodipodi="http://sodipodi.sourceforge.net/DTD/sodipodi-0.dtd"
   xmlns:inkscape="http://www.inkscape.org/namespaces/inkscape"
   width="128"
   height="128"
   id="svg2"
   version="1.1"
   inkscape:version="0.48.0 r9654"
   sodipodi:docname="New document 1">
  <defs
     id="defs4" />
  <sodipodi:namedview
     id="base"
     pagecolor="#ffffff"
     bordercolor="#666666"
     borderopacity="1.0"
     inkscape:pageopacity="0.0"
     inkscape:pageshadow="2"
     inkscape:zoom="1.979899"
     inkscape:cx="21.232735"
     inkscape:cy="75.193472"
     inkscape:document-units="px"
     inkscape:current-layer="layer1"
     showgrid="false"
     showguides="true"
     inkscape:guide-bbox="true"
     inkscape:window-width="1280"
     inkscape:window-height="686"
     inkscape:window-x="0"
     inkscape:window-y="0"
     inkscape:window-maximized="0">
    <sodipodi:guide
       orientation="1,0"
       position="64,64"
       id="guide4099" />
    <sodipodi:guide
       orientation="0,1"
       position="64,64"
       id="guide4101" />
    <sodipodi:guide
       orientation="-0.70710678,0.70710678"
       position="64,64"
       id="guide4882" />
  </sodipodi:namedview>
  <metadata
     id="metadata7">
    <rdf:RDF>
      <cc:Work
         rdf:about="">
        <dc:format>image/svg+xml</dc:format>
        <dc:type
           rdf:resource="http://purl.org/dc/dcmitype/StillImage" />
        <dc:title></dc:title>
      </cc:Work>
    </rdf:RDF>
  </metadata>
  <g
     inkscape:label="Layer 1"
     inkscape:groupmode="layer"
     id="layer1"
     transform="translate(0,-924.36218)">
    <path
       sodipodi:type="arc"
       style="fill:#ff6600;stroke:none"
       id="path4103"
       sodipodi:cx="64.821426"
       sodipodi:cy="65.321426"
       sodipodi:rx="23.035715"
       sodipodi:ry="23.035715"
       d="m 87.857141,65.321426 a 23.035715,23.035715 0 1 1 -46.07143,0 23.035715,23.035715 0 1 1 46.07143,0 z"
       transform="matrix(1.0418604,0,0,1.0418604,-3.5348815,920.30637)" />
    <g
       id="g4915">
      <path
         inkscape:transform-center-y="-17.109375"
         inkscape:transform-center-x="-32.5"
         sodipodi:nodetypes="ccsccsc"
         inkscape:connector-curvature="0"
         id="path4887"
         transform="translate(0,924.36218)"
         d="M 69,4.21875 69,14.25 c 25.271488,2.503912 45,23.819781 45,49.75 0,7.315326 -1.58324,14.268743 -4.40625,20.53125 l 8.6875,5.03125 C 121.94445,81.802441 124,73.150421 124,64 124,32.549634 99.793523,6.7636326 69,4.21875 z"
         style="fill:#ff0000;stroke:none" />
      <path
         style="fill:#008000;stroke:none"
         d="m 9.7279188,1013.9227 8.6873172,-5.0156 C 7.9479436,985.76935 16.543772,958.02602 39,945.06091 c 6.335258,-3.65766 13.148714,-5.76325 19.983709,-6.4497 l 0.01344,-10.03922 C 50.445141,929.27959 41.924497,931.82545 34,936.40066 6.7631841,952.12584 -3.4649097,985.98226 9.7279188,1013.9227 z"
         id="path4911"
         inkscape:connector-curvature="0"
         sodipodi:nodetypes="ccsccsc"
         inkscape:transform-center-x="32.500372"
         inkscape:transform-center-y="-17.114835" />
      <path
         inkscape:transform-center-y="44.605655"
         inkscape:transform-center-x="0.0031488948"
         sodipodi:nodetypes="ccsccsc"
         inkscape:connector-curvature="0"
         id="path4913"
         d="m 113.2721,1022.5829 -8.68729,-5.0156 c -14.804238,20.6338 -43.128581,27.0613 -65.584809,14.0962 -6.335256,-3.6577 -11.565478,-8.5055 -15.577459,-14.0816 l -8.700939,5.008 c 4.888803,7.0524 11.353905,13.1586 19.278401,17.7338 27.236814,15.7252 61.67138,7.6548 79.272096,-17.7408 z"
         style="fill:#0000ff;stroke:none" />
    </g>
  </g>
</svg>
